# xmcd
#
# Track frame offsets:
#	150
#	21737
#	41508
#	59715
#	75050
#	89523
#	109213
#	130134
#	147652
#	169507
#	186476
#	201129
#	217436
#	237941
#	258903
#	276286
#	295866
#	316001
#	336599
#
# Disc length: 4756 seconds
#
# Revision: 0
# Processed by: cddbd v1.5.2PL0 Copyright (c) Steve Scherf et al.
# Submitted via: audiograbber 1.81.02
#
DISCID=2f129213
DTITLE=Gaby Zevallos - Gaby Zevallos
DYEAR=2007
DGENRE=Ballad
TTITLE0=gaby zevallos - Señora
TTITLE1=gaby zevallos - Ese Hombre
TTITLE2=gaby zevallos - Dejame
TTITLE3=gaby zevallos - Acepto Mi Destino
TTITLE4=gaby zevallos - Corazon Herido
TTITLE5=gaby zevallos - Elle Te Necesita Mas Que Yo
TTITLE6=gaby zevallos - Mas Quiero Mas
TTITLE7=gaby zevallos - Mal Hombre
TTITLE8=gaby zevallos - Tenga Cuidado Señora
TTITLE9=gaby zevallos - Asi No Te Amara Jamas
TTITLE10=gaby zevallos - Un Pasatiempo
TTITLE11=gaby zevallos - Mas Fiel El Perro Que Tu
TTITLE12=gaby zevallos - Dime Que Has Ganado
TTITLE13=gaby zevallos - En La Oscuridad
TTITLE14=gaby zevallos - De Mujer Amujer
TTITLE15=gaby zevallos - La Niña Llora
TTITLE16=gaby zevallos - Penumbras
TTITLE17=gaby zevallos - Costumbres
TTITLE18=gaby zevallos - Que Me Perdonen Los Dos
EXTD=
EXTT0=
EXTT1=
EXTT2=
EXTT3=
EXTT4=
EXTT5=
EXTT6=
EXTT7=
EXTT8=
EXTT9=
EXTT10=
EXTT11=
EXTT12=
EXTT13=
EXTT14=
EXTT15=
EXTT16=
EXTT17=
EXTT18=
PLAYORDER=
